<svg width="24" height="24" viewBox="0 0 24 24" fill="none" xmlns="http://www.w3.org/2000/svg">
<path d="M12 22.5L14.461 18.75H9.75L12.2109 15" stroke="#1A1A1A" stroke-width="1.5" stroke-linecap="round" stroke-linejoin="round"/>
<path d="M8.24949 8.62503C8.24949 7.36417 8.62338 6.13162 9.32388 5.08326C10.0244 4.03489 11.02 3.21778 12.1849 2.73527C13.3498 2.25276 14.6316 2.12652 15.8682 2.3725C17.1049 2.61848 18.2408 3.22564 19.1324 4.11721C20.0239 5.00877 20.6311 6.14469 20.8771 7.38133C21.123 8.61796 20.9968 9.89977 20.5143 11.0647C20.0318 12.2295 19.2147 13.2252 18.1663 13.9257C17.1179 14.6262 15.8854 15.0001 14.6245 15.0001H7.12449C6.52555 14.9996 5.93391 14.8686 5.39068 14.6164C4.84746 14.3642 4.36567 13.9966 3.97882 13.5394C3.59197 13.0822 3.30933 12.5462 3.15054 11.9687C2.99175 11.3912 2.96063 10.786 3.05933 10.1953C3.15803 9.60451 3.38419 9.04234 3.72209 8.54783C4.06 8.05331 4.50153 7.63831 5.01602 7.33167C5.5305 7.02503 6.10559 6.8341 6.70131 6.77215C7.29703 6.7102 7.8991 6.77873 8.46567 6.97296" stroke="#1A1A1A" stroke-width="1.5" stroke-linecap="round" stroke-linejoin="round"/>
</svg>
