<svg width="24" height="24" viewBox="0 0 24 24" fill="none" xmlns="http://www.w3.org/2000/svg">
<g clip-path="url(#clip0_360_9448)">
<path d="M8.25044 13.875C8.25044 12.6141 8.62433 11.3816 9.32482 10.3332C10.0253 9.28488 11.021 8.46778 12.1858 7.98527C13.3507 7.50276 14.6325 7.37652 15.8691 7.6225C17.1058 7.86848 18.2417 8.47564 19.1332 9.3672C20.0248 10.2588 20.632 11.3947 20.8779 12.6313C21.1239 13.8679 20.9977 15.1497 20.5152 16.3146C20.0327 17.4795 19.2156 18.4751 18.1672 19.1756C17.1188 19.8761 15.8863 20.25 14.6254 20.25H7.12544C6.52651 20.2495 5.93487 20.1186 5.39165 19.8663C4.84842 19.6141 4.36664 19.2466 3.97979 18.7893C3.59294 18.3321 3.3103 17.7961 3.15151 17.2186C2.99273 16.6411 2.9616 16.036 3.06031 15.4452C3.15901 14.8545 3.38517 14.2923 3.72307 13.7978C4.06097 13.3033 4.5025 12.8883 5.01698 12.5816C5.53146 12.275 6.10655 12.0841 6.70227 12.0221C7.29799 11.9602 7.90005 12.0287 8.46661 12.2229" stroke="#1A1A1A" stroke-width="1.5" stroke-linecap="round" stroke-linejoin="round"/>
<path d="M7.46883 5.31738L7.07812 3.10156" stroke="#1A1A1A" stroke-width="1.5" stroke-linecap="round" stroke-linejoin="round"/>
<path d="M4.5638 7.1675L2.7207 5.87695" stroke="#1A1A1A" stroke-width="1.5" stroke-linecap="round" stroke-linejoin="round"/>
<path d="M3.81836 10.5293L1.60254 10.92" stroke="#1A1A1A" stroke-width="1.5" stroke-linecap="round" stroke-linejoin="round"/>
<path d="M10.8301 6.0638L12.1206 4.2207" stroke="#1A1A1A" stroke-width="1.5" stroke-linecap="round" stroke-linejoin="round"/>
<path d="M4.84187 12.6887C4.41966 12.1993 4.10783 11.6246 3.92757 11.0039C3.74732 10.3832 3.70288 9.73092 3.79728 9.09148C3.89168 8.45204 4.1227 7.84043 4.47463 7.29827C4.82656 6.75611 5.29114 6.29611 5.83676 5.94957C6.38239 5.60303 6.99625 5.37807 7.63659 5.29001C8.27694 5.20195 8.92873 5.25285 9.54765 5.43924C10.1666 5.62563 10.7381 5.94315 11.2233 6.37018C11.7085 6.79722 12.096 7.32376 12.3595 7.91398" stroke="#1A1A1A" stroke-width="1.5" stroke-linecap="round" stroke-linejoin="round"/>
</g>
<defs>
<clipPath id="clip0_360_9448">
<rect width="24" height="24" fill="white"/>
</clipPath>
</defs>
</svg>
