<svg width="24" height="24" viewBox="0 0 24 24" fill="none" xmlns="http://www.w3.org/2000/svg">
<g clip-path="url(#clip0_360_9451)">
<path d="M8.25044 8.625C8.25044 7.36415 8.62433 6.13161 9.32482 5.08324C10.0253 4.03488 11.021 3.21778 12.1858 2.73527C13.3507 2.25276 14.6325 2.12652 15.8691 2.3725C17.1058 2.61848 18.2417 3.22564 19.1332 4.1172C20.0248 5.00876 20.632 6.14467 20.878 7.3813C21.1239 8.61793 20.9977 9.89973 20.5152 11.0646C20.0327 12.2295 19.2156 13.2251 18.1672 13.9256C17.1188 14.6261 15.8863 15 14.6254 15H7.12544C6.52651 14.9995 5.93487 14.8686 5.39165 14.6163C4.84842 14.3641 4.36664 13.9966 3.97979 13.5393C3.59294 13.0821 3.3103 12.5461 3.15151 11.9686C2.99273 11.3911 2.9616 10.786 3.06031 10.1952C3.15901 9.60448 3.38517 9.04231 3.72307 8.5478C4.06097 8.05329 4.5025 7.63829 5.01698 7.33164C5.53146 7.025 6.10655 6.83407 6.70227 6.77213C7.29799 6.71018 7.90005 6.7787 8.46661 6.97293" stroke="#1A1A1A" stroke-width="1.5" stroke-linecap="round" stroke-linejoin="round"/>
<path d="M7.125 19.5C7.74632 19.5 8.25 18.9963 8.25 18.375C8.25 17.7537 7.74632 17.25 7.125 17.25C6.50368 17.25 6 17.7537 6 18.375C6 18.9963 6.50368 19.5 7.125 19.5Z" fill="#1A1A1A"/>
<path d="M10.875 21C11.4963 21 12 20.4963 12 19.875C12 19.2537 11.4963 18.75 10.875 18.75C10.2537 18.75 9.75 19.2537 9.75 19.875C9.75 20.4963 10.2537 21 10.875 21Z" fill="#1A1A1A"/>
<path d="M15.375 19.5C15.9963 19.5 16.5 18.9963 16.5 18.375C16.5 17.7537 15.9963 17.25 15.375 17.25C14.7537 17.25 14.25 17.7537 14.25 18.375C14.25 18.9963 14.7537 19.5 15.375 19.5Z" fill="#1A1A1A"/>
<path d="M6.375 23.25C6.99632 23.25 7.5 22.7463 7.5 22.125C7.5 21.5037 6.99632 21 6.375 21C5.75368 21 5.25 21.5037 5.25 22.125C5.25 22.7463 5.75368 23.25 6.375 23.25Z" fill="#1A1A1A"/>
<path d="M14.625 23.25C15.2463 23.25 15.75 22.7463 15.75 22.125C15.75 21.5037 15.2463 21 14.625 21C14.0037 21 13.5 21.5037 13.5 22.125C13.5 22.7463 14.0037 23.25 14.625 23.25Z" fill="#1A1A1A"/>
</g>
<defs>
<clipPath id="clip0_360_9451">
<rect width="24" height="24" fill="white"/>
</clipPath>
</defs>
</svg>
