<svg width="24" height="24" viewBox="0 0 24 24" fill="none" xmlns="http://www.w3.org/2000/svg">
<path d="M7.50078 12C7.50078 10.5167 7.94065 9.06662 8.76477 7.83324C9.58888 6.59987 10.7602 5.63857 12.1307 5.07091C13.5011 4.50325 15.0091 4.35472 16.464 4.64411C17.9189 4.93351 19.2552 5.64781 20.3041 6.69671C21.353 7.74561 22.0674 9.08199 22.3567 10.5369C22.6461 11.9917 22.4976 13.4997 21.9299 14.8702C21.3623 16.2406 20.401 17.412 19.1676 18.2361C17.9342 19.0602 16.4842 19.5001 15.0008 19.5001H6.75078C6.00625 19.4994 5.27038 19.3403 4.59203 19.0334C3.91368 18.7265 3.30836 18.2789 2.81624 17.7202C2.32412 17.1615 1.95646 16.5045 1.73767 15.7929C1.51888 15.0812 1.45395 14.3312 1.5472 13.5925C1.64046 12.8538 1.88975 12.1434 2.27855 11.5085C2.66734 10.8735 3.18674 10.3285 3.80228 9.90967C4.41781 9.4908 5.11539 9.20765 5.84872 9.079C6.58205 8.95035 7.33436 8.97915 8.05571 9.16348" stroke="#1A1A1A" stroke-width="1.5" stroke-linecap="round" stroke-linejoin="round"/>
</svg>
