<svg width="24" height="24" viewBox="0 0 24 24" fill="none" xmlns="http://www.w3.org/2000/svg">
<path d="M10.0813 3.7242C10.8849 2.16438 13.1151 2.16438 13.9187 3.7242V3.7242C14.4016 4.66147 15.4909 5.1127 16.4951 4.79139V4.79139C18.1663 4.25668 19.7433 5.83365 19.2086 7.50485V7.50485C18.8873 8.50905 19.3385 9.59842 20.2758 10.0813V10.0813C21.8356 10.8849 21.8356 13.1151 20.2758 13.9187V13.9187C19.3385 14.4016 18.8873 15.491 19.2086 16.4951V16.4951C19.7433 18.1663 18.1663 19.7433 16.4951 19.2086V19.2086C15.491 18.8873 14.4016 19.3385 13.9187 20.2758V20.2758C13.1151 21.8356 10.8849 21.8356 10.0813 20.2758V20.2758C9.59842 19.3385 8.50905 18.8873 7.50485 19.2086V19.2086C5.83365 19.7433 4.25668 18.1663 4.79139 16.4951V16.4951C5.1127 15.491 4.66147 14.4016 3.7242 13.9187V13.9187C2.16438 13.1151 2.16438 10.8849 3.7242 10.0813V10.0813C4.66147 9.59842 5.1127 8.50905 4.79139 7.50485V7.50485C4.25668 5.83365 5.83365 4.25668 7.50485 4.79139V4.79139C8.50905 5.1127 9.59842 4.66147 10.0813 3.7242V3.7242Z" stroke="#1A1A1A" stroke-width="1.5"/>
</svg>
