<svg width="24" height="24" viewBox="0 0 24 24" fill="none" xmlns="http://www.w3.org/2000/svg">
<path d="M20.3122 14.3105C18.8399 14.7196 17.2854 14.7304 15.8076 14.3417C14.3298 13.9531 12.9818 13.1789 11.9013 12.0984C10.8208 11.0179 10.0466 9.66986 9.65793 8.19206C9.26926 6.71427 9.28003 5.15977 9.68913 3.6875L9.68937 3.68757C8.23724 4.09154 6.9163 4.86894 5.85815 5.94234C4.79999 7.01573 4.04155 8.34765 3.65839 9.8054C3.27522 11.2632 3.2807 12.7959 3.67429 14.2508C4.06787 15.7058 4.83582 17.0323 5.90162 18.0981C6.96743 19.1639 8.2939 19.9318 9.74888 20.3254C11.2039 20.719 12.7366 20.7244 14.1943 20.3412C15.6521 19.9581 16.984 19.1996 18.0574 18.1414C19.1308 17.0833 19.9081 15.7623 20.3121 14.3102L20.3122 14.3105Z" stroke="#1A1A1A" stroke-width="1.5" stroke-linecap="round" stroke-linejoin="round"/>
</svg>
