<svg width="24" height="24" viewBox="0 0 24 24" fill="none" xmlns="http://www.w3.org/2000/svg">
<g clip-path="url(#clip0_363_10581)">
<path d="M6.8125 9.375C7.74448 9.375 8.5 8.61948 8.5 7.6875C8.5 6.75552 7.74448 6 6.8125 6C5.88052 6 5.125 6.75552 5.125 7.6875C5.125 8.61948 5.88052 9.375 6.8125 9.375Z" fill="#1A1A1A"/>
<path d="M19.1875 9.375C20.1195 9.375 20.875 8.61948 20.875 7.6875C20.875 6.75552 20.1195 6 19.1875 6C18.2555 6 17.5 6.75552 17.5 7.6875C17.5 8.61948 18.2555 9.375 19.1875 9.375Z" fill="#1A1A1A"/>
<path d="M13.1875 7.375C14.1195 7.375 14.875 6.61948 14.875 5.6875C14.875 4.75552 14.1195 4 13.1875 4C12.2555 4 11.5 4.75552 11.5 5.6875C11.5 6.61948 12.2555 7.375 13.1875 7.375Z" fill="#1A1A1A"/>
<path d="M5.6875 15C6.61948 15 7.375 14.2445 7.375 13.3125C7.375 12.3805 6.61948 11.625 5.6875 11.625C4.75552 11.625 4 12.3805 4 13.3125C4 14.2445 4.75552 15 5.6875 15Z" fill="#1A1A1A"/>
<path d="M4.6875 20.375C5.61948 20.375 6.375 19.6195 6.375 18.6875C6.375 17.7555 5.61948 17 4.6875 17C3.75552 17 3 17.7555 3 18.6875C3 19.6195 3.75552 20.375 4.6875 20.375Z" fill="#1A1A1A"/>
<path d="M18.0625 15C18.9945 15 19.75 14.2445 19.75 13.3125C19.75 12.3805 18.9945 11.625 18.0625 11.625C17.1305 11.625 16.375 12.3805 16.375 13.3125C16.375 14.2445 17.1305 15 18.0625 15Z" fill="#1A1A1A"/>
<path d="M12.0625 13C12.9945 13 13.75 12.2445 13.75 11.3125C13.75 10.3805 12.9945 9.625 12.0625 9.625C11.1305 9.625 10.375 10.3805 10.375 11.3125C10.375 12.2445 11.1305 13 12.0625 13Z" fill="#1A1A1A"/>
<path d="M16.6875 20.375C17.6195 20.375 18.375 19.6195 18.375 18.6875C18.375 17.7555 17.6195 17 16.6875 17C15.7555 17 15 17.7555 15 18.6875C15 19.6195 15.7555 20.375 16.6875 20.375Z" fill="#1A1A1A"/>
<path d="M10.6875 18.375C11.6195 18.375 12.375 17.6195 12.375 16.6875C12.375 15.7555 11.6195 15 10.6875 15C9.75552 15 9 15.7555 9 16.6875C9 17.6195 9.75552 18.375 10.6875 18.375Z" fill="#1A1A1A"/>
</g>
<defs>
<clipPath id="clip0_363_10581">
<rect width="24" height="24" fill="white"/>
</clipPath>
</defs>
</svg>
