<svg width="24" height="24" viewBox="0 0 24 24" fill="none" xmlns="http://www.w3.org/2000/svg">
<path d="M8.69996 5.53111L7.98242 3.79883" stroke="#1A1A1A" stroke-width="1.5" stroke-linecap="round" stroke-linejoin="round"/>
<path d="M4.03209 10.2L2.2998 9.48242" stroke="#1A1A1A" stroke-width="1.5" stroke-linecap="round" stroke-linejoin="round"/>
<path d="M19.9688 10.2L21.701 9.48242" stroke="#1A1A1A" stroke-width="1.5" stroke-linecap="round" stroke-linejoin="round"/>
<path d="M15.3008 5.53111L16.0183 3.79883" stroke="#1A1A1A" stroke-width="1.5" stroke-linecap="round" stroke-linejoin="round"/>
<path d="M22.5001 15H1.5" stroke="#1A1A1A" stroke-width="1.5" stroke-linecap="round" stroke-linejoin="round"/>
<path d="M19.5001 18.75H4.5" stroke="#1A1A1A" stroke-width="1.5" stroke-linecap="round" stroke-linejoin="round"/>
<path d="M6.57722 15.0006C6.34705 14.1655 6.31285 13.2886 6.47728 12.4381C6.6417 11.5877 7.00032 10.7867 7.52517 10.0976C8.05003 9.40848 8.72693 8.84991 9.50312 8.46541C10.2793 8.08091 11.1338 7.88086 12 7.88086C12.8662 7.88086 13.7207 8.08091 14.4969 8.46541C15.2731 8.84991 15.95 9.40848 16.4749 10.0976C16.9997 10.7867 17.3583 11.5876 17.5228 12.4381C17.6872 13.2886 17.653 14.1655 17.4228 15.0006" stroke="#1A1A1A" stroke-width="1.5" stroke-linecap="round" stroke-linejoin="round"/>
</svg>
