<svg width="24" height="24" viewBox="0 0 24 24" fill="none" xmlns="http://www.w3.org/2000/svg">
<path d="M12 22.5L14.461 18.75H9.75L12.2109 15" stroke="#1A1A1A" stroke-width="1.5" stroke-linecap="round" stroke-linejoin="round"/>
<path d="M8.24949 8.62503C8.24949 7.36417 8.62338 6.13162 9.32388 5.08326C10.0244 4.03489 11.02 3.21778 12.1849 2.73527C13.3498 2.25276 14.6316 2.12652 15.8682 2.3725C17.1049 2.61848 18.2408 3.22564 19.1324 4.11721C20.0239 5.00877 20.6311 6.14469 20.8771 7.38133C21.123 8.61796 20.9968 9.89977 20.5143 11.0647C20.0318 12.2295 19.2147 13.2252 18.1663 13.9257C17.1179 14.6262 15.8854 15.0001 14.6245 15.0001H7.12449C6.52555 14.9996 5.93391 14.8686 5.39068 14.6164C4.84746 14.3642 4.36567 13.9966 3.97882 13.5394C3.59197 13.0822 3.30933 12.5462 3.15054 11.9687C2.99175 11.3912 2.96063 10.786 3.05933 10.1953C3.15803 9.60451 3.38419 9.04234 3.72209 8.54783C4.06 8.05331 4.50153 7.63831 5.01602 7.33167C5.5305 7.02503 6.10559 6.8341 6.70131 6.77215C7.29703 6.7102 7.8991 6.77873 8.46567 6.97296" stroke="#1A1A1A" stroke-width="1.5" stroke-linecap="round" stroke-linejoin="round"/>
<path d="M4.62262 20.0551C4.75065 20.0554 4.87555 20.0155 4.97966 19.941C5.08377 19.8665 5.16183 19.7611 5.2028 19.6398L5.81352 17.8076C5.83919 17.7315 5.84959 17.651 5.84415 17.5707C5.8387 17.4905 5.81751 17.4122 5.78178 17.3402C5.74605 17.2681 5.69649 17.2039 5.63592 17.151C5.57535 17.0981 5.50496 17.0577 5.42877 17.032C5.35258 17.0064 5.27208 16.996 5.19186 17.0014C5.11165 17.0069 5.0333 17.028 4.96127 17.0638C4.88925 17.0995 4.82497 17.1491 4.7721 17.2096C4.71924 17.2702 4.67882 17.3406 4.65315 17.4168L4.04243 19.249C4.01175 19.3269 3.99743 19.4104 4.00038 19.4941C4.00332 19.5778 4.02347 19.6601 4.05956 19.7357C4.09565 19.8113 4.14691 19.8787 4.21015 19.9336C4.2734 19.9886 4.34727 20.0299 4.42718 20.0551C4.49206 20.0635 4.55774 20.0635 4.62262 20.0551ZM7.37713 22.9013C7.44201 22.9097 7.50769 22.9097 7.57256 22.9013C7.7006 22.9017 7.8255 22.8617 7.92961 22.7872C8.03372 22.7127 8.11178 22.6073 8.15275 22.486L8.76347 20.6539C8.8153 20.5 8.80388 20.3318 8.73173 20.1864C8.65957 20.0409 8.53259 19.9301 8.37871 19.8783C8.22484 19.8264 8.05668 19.8378 7.91122 19.91C7.76576 19.9822 7.65493 20.1091 7.6031 20.263L6.99238 22.0952C6.96169 22.1731 6.94738 22.2566 6.95032 22.3403C6.95327 22.4241 6.97341 22.5063 7.0095 22.5819C7.04559 22.6575 7.09685 22.7249 7.1601 22.7798C7.22334 22.8348 7.29722 22.8762 7.37713 22.9013ZM18.4738 20.0551C18.5387 20.0635 18.6043 20.0635 18.6692 20.0551C18.8024 20.0621 18.9342 20.0252 19.0445 19.9502C19.1547 19.8752 19.2374 19.7662 19.2799 19.6398L19.8907 17.8076C19.9425 17.6538 19.9311 17.4856 19.8589 17.3402C19.7868 17.1947 19.6598 17.0839 19.5059 17.032C19.352 16.9802 19.1839 16.9916 19.0384 17.0638C18.893 17.1359 18.7821 17.2629 18.7303 17.4168L18.1196 19.249C18.0882 19.325 18.0726 19.4065 18.0735 19.4888C18.0744 19.571 18.092 19.6522 18.125 19.7274C18.1581 19.8027 18.2061 19.8705 18.266 19.9269C18.3259 19.9832 18.3966 20.0268 18.4738 20.0551ZM15.8049 22.9927C15.9381 22.9996 16.0699 22.9628 16.1802 22.8878C16.2905 22.8128 16.3732 22.7038 16.4157 22.5774L17.0264 20.7452C17.0774 20.5913 17.0652 20.4235 16.9925 20.2786C16.9197 20.1337 16.7924 20.0237 16.6386 19.9727C16.4847 19.9216 16.3169 19.9338 16.172 20.0066C16.0271 20.0793 15.917 20.2066 15.866 20.3605L15.2553 22.1926C15.2037 22.3426 15.2124 22.5067 15.2797 22.6503C15.3469 22.7939 15.4674 22.9058 15.6156 22.9621C15.6762 22.9841 15.7405 22.9945 15.8049 22.9927Z" fill="#1A1A1A"/>
</svg>
