<svg width="24" height="24" viewBox="0 0 24 24" fill="none" xmlns="http://www.w3.org/2000/svg">
<path d="M12.1392 18.0308C12.2818 18.4164 12.5273 18.7556 12.8491 19.0115C13.171 19.2674 13.5567 19.4303 13.9646 19.4824C14.3724 19.5345 14.7868 19.4739 15.1626 19.3071C15.5384 19.1403 15.8613 18.8737 16.0963 18.5363C16.3313 18.1989 16.4693 17.8036 16.4955 17.3933C16.5216 16.9829 16.4348 16.5733 16.2445 16.2088C16.0542 15.8443 15.7677 15.539 15.4161 15.3259C15.0644 15.1127 14.6612 15 14.25 15H3.75" stroke="#1A1A1A" stroke-width="1.5" stroke-linecap="round" stroke-linejoin="round"/>
<path d="M9.13917 5.96973C9.28179 5.5841 9.52733 5.24491 9.84915 4.989C10.171 4.73309 10.5567 4.57024 10.9646 4.51814C11.3724 4.46604 11.7868 4.52668 12.1626 4.69346C12.5384 4.86025 12.8613 5.12682 13.0963 5.46422C13.3313 5.80161 13.4693 6.19694 13.4955 6.60727C13.5216 7.0176 13.4348 7.42725 13.2445 7.79172C13.0542 8.1562 12.7677 8.46157 12.4161 8.67468C12.0644 8.88779 11.6612 9.00049 11.25 9.00054H2.25" stroke="#1A1A1A" stroke-width="1.5" stroke-linecap="round" stroke-linejoin="round"/>
<path d="M17.3892 8.96974C17.5318 8.5841 17.7773 8.24491 18.0991 7.989C18.421 7.73309 18.8067 7.57024 19.2146 7.51814C19.6224 7.46604 20.0368 7.52667 20.4126 7.69346C20.7884 7.86025 21.1113 8.12682 21.3463 8.46422C21.5813 8.80161 21.7193 9.19694 21.7455 9.60727C21.7716 10.0176 21.6848 10.4272 21.4945 10.7917C21.3042 11.1562 21.0177 11.4616 20.6661 11.6747C20.3144 11.8878 19.9112 12.0005 19.5 12.0005H3" stroke="#1A1A1A" stroke-width="1.5" stroke-linecap="round" stroke-linejoin="round"/>
</svg>
