<svg width="169" height="219" viewBox="0 0 169 219" fill="none" xmlns="http://www.w3.org/2000/svg">
<path d="M46.3015 91.0435C46.3015 91.0435 -3.53362 84.4559 0.199756 65.3932C4.81158 41.8452 60.3076 42.9665 60.3076 42.9665L46.3015 91.0435Z" fill="#36D388"/>
<path d="M139.795 187.51C139.641 186.075 138.979 184.741 137.929 183.749C136.726 182.627 135.271 181.812 133.686 181.371C91.5861 169.483 99.709 121.687 99.709 121.687L65.4938 137.978C65.4938 137.978 78.8828 184.453 121.321 196.17C118.24 204.891 121.583 211.539 126.701 212.433C140.914 214.911 140.595 194.843 139.795 187.51Z" fill="#231F20"/>
<path d="M119.778 136.685L99.8614 134.136C99.8614 134.136 70.7265 159.767 69.8123 197.801C66.7412 197.434 63.7083 197.629 61.1086 198.852C51.0573 203.569 60.7753 217.493 83.8299 218.249C83.8299 218.249 94.3334 219.2 91.8956 207.454C89.134 165.678 119.778 136.685 119.778 136.685Z" fill="#31E38E"/>
<path d="M66.6364 197.644C66.6364 197.644 70.474 197.406 73.7784 199.07" stroke="#231F20" stroke-width="1.57582" stroke-linecap="round" stroke-linejoin="round"/>
<path d="M41.9677 70.2242C41.9677 70.2242 46.0625 10.2733 97.0236 16.4885C128.515 20.2928 148.156 53.062 152.884 81.7797C156.074 101.163 152.527 122.414 135.834 134.745C122.649 144.484 104.518 148.868 88.4721 150.576C72.4263 152.283 54.533 150.714 40.2727 142.591C25.3791 134.108 19.9464 119.571 21.2272 103.008C22.2414 89.5547 27.5074 74.1283 41.9677 70.2242Z" fill="#31E38E"/>
<path d="M62.1652 59.3387C62.1652 59.3387 57.9181 81.4844 78.7681 78.8785C99.6182 76.2726 98.7421 57.2559 98.7421 57.2559" stroke="#231F20" stroke-width="2.10109" stroke-linecap="round" stroke-linejoin="round"/>
<path d="M73.8499 56.2765C77.3999 56.2765 80.2777 53.4023 80.2777 49.8568C80.2777 46.3112 77.3999 43.437 73.8499 43.437C70.2998 43.437 67.422 46.3112 67.422 49.8568C67.422 53.4023 70.2998 56.2765 73.8499 56.2765Z" fill="white"/>
<path d="M73.4737 48.1544C72.948 48.736 72.6357 49.4788 72.5881 50.2609C72.5374 50.5896 72.5668 50.9257 72.6738 51.2406C72.7404 51.4165 73.0309 51.9444 73.3119 51.9348C74.3451 52.4579 75.2164 50.5415 75.3926 49.9852C75.6497 49.2291 75.9449 47.5029 74.4784 47.6979C74.1043 47.7427 73.7534 47.9022 73.4737 48.1544Z" fill="#231F20" stroke="#231F20" stroke-width="1.60208" stroke-linecap="round" stroke-linejoin="round"/>
<path d="M85.1724 56.2765C88.7224 56.2765 91.6002 53.4023 91.6002 49.8568C91.6002 46.3112 88.7224 43.437 85.1724 43.437C81.6224 43.437 78.7445 46.3112 78.7445 49.8568C78.7445 53.4023 81.6224 56.2765 85.1724 56.2765Z" fill="white"/>
<path d="M84.7965 48.1544C84.2672 48.7337 83.9543 49.4778 83.9109 50.2609C83.8602 50.5896 83.8896 50.9257 83.9966 51.2406C84.0632 51.4165 84.3489 51.9444 84.6346 51.9348C85.663 52.4579 86.5391 50.5415 86.7105 49.9852C86.9677 49.2291 87.2629 47.5029 85.7964 47.6979C85.4235 47.7418 85.0738 47.9015 84.7965 48.1544Z" fill="#231F20" stroke="#231F20" stroke-width="1.60208" stroke-linecap="round" stroke-linejoin="round"/>
<path d="M105.598 146.761C105.598 146.761 115.269 145.487 123.692 141.797" stroke="#231F20" stroke-width="1.57582" stroke-linecap="round" stroke-linejoin="round"/>
<path d="M22.2271 62.7765L44.0581 69.2542C43.05 63.5193 43.6346 57.6182 45.7485 52.1919" stroke="#231F20" stroke-width="1.57582" stroke-linecap="round" stroke-linejoin="round"/>
<path d="M44.0576 69.2495C44.0576 69.2495 27.1975 70.4764 21.6315 99.0704" stroke="#231F20" stroke-width="1.57582" stroke-linecap="round" stroke-linejoin="round"/>
<path d="M97.5949 25.9752C97.5949 25.9752 69.4504 19.3843 67.5506 1C67.5506 1 62.3131 19.584 81.6157 27.3447" fill="#31E38E"/>
<path d="M97.5949 25.9752C97.5949 25.9752 69.4504 19.3843 67.5506 1C67.5506 1 62.3131 19.584 81.6157 27.3447" stroke="#31E38E" stroke-width="0.583052" stroke-linecap="round" stroke-linejoin="round"/>
<path d="M75.602 25.4374C75.602 25.4374 69.855 21.7663 68.46 16.0171" stroke="#231F20" stroke-width="1.57582" stroke-linecap="round" stroke-linejoin="round"/>
<path d="M135.05 172.259C139.998 173.342 150.789 173.466 152.803 164.12C153.825 159.411 150.768 155.217 146.315 152.617L145.018 100.178L115.284 99.3075L125.87 152.3C120.007 163.978 129.488 171.036 135.05 172.259Z" fill="#31E38E"/>
<path d="M145.149 115.783L145.924 130.741" stroke="#231F20" stroke-width="1.57582" stroke-linecap="round" stroke-linejoin="round"/>
<path d="M119.347 121.284L124.806 147.122" stroke="#231F20" stroke-width="1.57582" stroke-linecap="round" stroke-linejoin="round"/>
</svg>
