<svg width="196" height="217" viewBox="0 0 196 217" fill="none" xmlns="http://www.w3.org/2000/svg">
<path d="M178.959 179.66C178.779 177.96 177.999 176.39 176.759 175.22C175.339 173.9 173.619 172.93 171.749 172.41C122.079 158.37 131.659 101.93 131.659 101.93L91.2888 121.15C91.2888 121.15 107.089 176.03 157.159 189.87C153.519 200.17 157.469 208.02 163.509 209.08C180.279 212.02 179.929 188.32 178.959 179.66Z" fill="#231F20"/>
<path d="M155.339 119.64L131.839 116.66C131.839 116.66 97.4588 146.93 96.3788 191.84C92.7588 191.41 89.1788 191.64 86.0988 193.08C74.2488 198.65 85.7088 215.09 112.909 215.99C112.909 215.99 125.299 217.11 122.429 203.24C119.169 153.88 155.329 119.64 155.329 119.64H155.339Z" fill="#FF5E2C"/>
<path d="M92.6389 191.63C92.6389 191.63 97.1689 191.35 101.069 193.32" stroke="#231F20" stroke-width="1.43" stroke-linecap="round" stroke-linejoin="round"/>
<path d="M7.48889 47.0501C3.10889 51.0501 -4.3111 61.2601 3.2489 69.5101C7.0389 73.6401 13.1189 73.5601 18.5989 71.0501L69.4689 105.11L90.3989 77.3001L32.7289 51.7001C25.5489 38.2401 12.4089 42.5501 7.48889 47.0401V47.0501Z" fill="#FF5E2C"/>
<path d="M48.9989 58.9499L40.0089 54.8999" stroke="#231F20" stroke-width="1.43" stroke-linecap="round"/>
<path d="M122.059 136.92C162.869 136.92 195.959 106.27 195.959 68.46C195.959 30.65 162.849 0 122.059 0C81.2689 0 48.1589 30.65 48.1589 68.46C48.1589 106.27 81.2289 136.92 122.059 136.92Z" fill="#FF5E2C"/>
<path d="M93.7389 51.8901C95.5489 51.8901 97.0189 50.2101 97.0189 48.1301C97.0189 46.0501 95.5489 44.3701 93.7389 44.3701C91.9289 44.3701 90.4589 46.0501 90.4589 48.1301C90.4589 50.2101 91.9289 51.8901 93.7389 51.8901Z" fill="#231F20"/>
<path d="M78.1689 51.8901C79.9789 51.8901 81.4489 50.2101 81.4489 48.1301C81.4489 46.0501 79.9789 44.3701 78.1689 44.3701C76.3589 44.3701 74.8889 46.0501 74.8889 48.1301C74.8889 50.2101 76.3589 51.8901 78.1689 51.8901Z" fill="#231F20"/>
<path d="M92.9489 61.45C90.8089 62.52 88.4389 63.06 86.0489 63.02C83.6589 62.98 81.3089 62.37 79.1989 61.23" stroke="#231F20" stroke-width="1.91" stroke-linecap="round" stroke-linejoin="round"/>
<path d="M174.079 162.29C179.859 163.56 192.469 163.7 194.819 152.78C196.009 147.28 192.439 142.38 187.239 139.34L185.729 78.0698L150.989 77.0498L163.359 138.97C156.509 152.62 167.589 160.86 174.089 162.29H174.079Z" fill="#FF5E2C"/>
<path d="M185.879 96.29L186.789 113.77" stroke="#231F20" stroke-width="1.43" stroke-linecap="round" stroke-linejoin="round"/>
<path d="M155.729 102.72L162.109 132.91" stroke="#231F20" stroke-width="1.43" stroke-linecap="round" stroke-linejoin="round"/>
<path d="M48.6989 65.8202C48.6989 62.5802 49.2589 54.4202 51.4789 47.7402" stroke="#231F20" stroke-width="1.43" stroke-linecap="round"/>
</svg>
