<svg width="93" height="116" viewBox="0 0 93 116" fill="none" xmlns="http://www.w3.org/2000/svg">
<path d="M21.9743 97.461C22.067 96.5959 22.4618 95.7927 23.0877 95.1961C23.8014 94.5191 24.6665 94.0272 25.6091 93.7626C50.6626 86.5951 45.8264 57.7817 45.8264 57.7817L66.1882 67.6041C66.1882 67.6041 58.2186 95.6232 32.9697 102.688C34.7999 107.943 32.8139 111.951 29.7682 112.49C21.3113 113.981 21.4983 101.882 21.9743 97.461Z" fill="#231F20"/>
<path d="M33.8877 66.818L45.7387 65.2842C45.7387 65.2842 63.0719 80.7344 63.6187 103.668C65.4432 103.444 67.2508 103.564 68.7977 104.301C74.7784 107.145 68.9931 115.54 55.2751 115.996C55.2751 115.996 49.028 116.552 50.4785 109.485C52.1331 84.301 33.8877 66.818 33.8877 66.818Z" fill="#F7F7F7"/>
<path d="M65.9052 103.631C65.9052 103.631 63.6216 103.487 61.6555 104.491" stroke="#231F20" stroke-width="1.38876" stroke-linecap="round" stroke-linejoin="round"/>
<path d="M0.184944 32.1706C-1.75576 27.7239 11.8008 17.3654 30.4429 9.03962C49.0849 0.713854 65.7863 -2.42837 67.7242 2.02121C67.8088 2.21949 67.8651 2.42899 67.8913 2.64336L77.575 39.0542C79.3926 45.8936 78.7312 53.1654 75.7104 59.5541C72.6897 65.9428 67.5091 71.0265 61.1059 73.8854L57.1056 75.6715C50.7017 78.5296 43.4983 78.9734 36.7992 76.9224C30.1 74.8715 24.3478 70.4613 20.5835 64.4902L0.527809 32.6952C0.388649 32.5384 0.273071 32.3616 0.184944 32.1706Z" fill="#F7F7F7"/>
<path d="M16.2792 88.385C13.2902 88.4108 7.04598 87.1551 7.01765 81.4583C7.01765 78.5913 9.28414 76.5185 12.1654 75.5523L19.2993 45.1621L36.5815 48.3158L24.0193 77.8946C25.977 85.4119 19.6393 88.3592 16.2792 88.385Z" fill="#F7F7F7"/>
<path d="M16.5598 55.4199L14.9364 63.8001" stroke="#231F20" stroke-width="1.38876" stroke-linecap="round" stroke-linejoin="round"/>
<path d="M31.2296 61.3403L24.9315 75.7298" stroke="#231F20" stroke-width="1.38876" stroke-linecap="round" stroke-linejoin="round"/>
<path d="M56.5954 28.9457C57.0091 29.4102 57.1083 30.1183 57.1196 30.6659C57.1341 30.9258 57.0865 31.1855 56.9808 31.4228C56.9156 31.5547 56.6549 31.9475 56.4396 31.9188C55.6038 32.2485 55.0854 30.6889 54.9806 30.2416C54.8389 29.6309 54.7397 28.2605 55.8559 28.5214C56.1392 28.5838 56.3971 28.7317 56.5954 28.9457Z" fill="#231F20" stroke="#231F20" stroke-width="1.83316" stroke-linecap="round" stroke-linejoin="round"/>
<path d="M53.4448 29.8861C53.8585 30.3477 53.9577 31.0558 53.969 31.6063C53.9844 31.8669 53.9378 32.1275 53.833 32.3661C53.7678 32.4979 53.5044 32.8907 53.2891 32.8592C52.4561 33.1889 51.9376 31.6321 51.8328 31.182C51.6883 30.5742 51.5892 29.2009 52.7054 29.4618C52.9901 29.5204 53.249 29.669 53.4448 29.8861Z" fill="#231F20" stroke="#231F20" stroke-width="1.83316" stroke-linecap="round" stroke-linejoin="round"/>
<path d="M57.6409 23.8623L54.1278 29.4186L45.8522 27.5177" stroke="#231F20" stroke-width="2.77752" stroke-linecap="round" stroke-linejoin="round"/>
<g clip-path="url(#clip0_58_49)">
<path d="M62.7298 21.1895C65.0916 20.3236 68.3254 19.6886 70.3638 19.3307C71.7734 19.0795 73.2072 18.9904 74.6371 19.0651C75.8575 19.1273 77.0732 19.2613 78.2779 19.4663H78.3039H78.3357C78.8785 19.5645 79.4184 19.6799 79.941 19.8214L80.0623 19.8502H80.0998C81.7666 20.2777 83.3438 20.999 84.7571 21.9803C89.4172 25.265 92.5066 30.6394 92.9484 36.1754C94.1437 51.1497 78.2347 52.0249 78.2347 52.0249C78.2347 52.0249 79.1162 41.3985 75.7978 33.7941L75.7343 33.7595C74.146 32.8898 72.3872 32.3767 70.5804 32.2557C68.5795 32.1143 66.0444 31.7593 66.8817 30.8789C68.0366 29.6753 72.5408 28.8325 73.8113 28.616C73.742 28.5208 73.6669 28.4284 73.5947 28.3274C70.9009 27.245 59.4527 22.3671 62.7298 21.1895Z" fill="#F7F7F7"/>
</g>
<path d="M84.4819 39.4106C84.4819 39.4106 79.5382 35.8326 75.6058 33.6393C74.0473 32.7755 72.3215 32.2658 70.5486 32.1456C68.5852 32.0052 66.0977 31.6525 66.9193 30.7752C68.2282 29.3819 74.0475 28.4816 74.0475 28.4816C74.0475 28.4816 59.2104 22.4609 62.8453 21.1364C65.1628 20.2935 68.3387 19.6484 70.3361 19.2929C71.7191 19.0419 73.1261 18.9534 74.5292 19.0291C76.3386 19.1054 78.1352 19.3735 79.8894 19.829" stroke="#231F20" stroke-width="1.38876" stroke-linecap="round" stroke-linejoin="round"/>
<path d="M77.5776 54.4643C78.1441 52.7758 78.476 51.0158 78.5636 49.2349C78.7306 46.4132 78.4756 43.5821 77.8071 40.8374L76.195 34.0942" stroke="#231F20" stroke-width="1.38876" stroke-linecap="round" stroke-linejoin="round"/>
<path d="M62.083 31.2091C62.083 31.2091 69.2898 43.0233 59.207 44.1218C49.1242 45.2204 48.8381 36.2911 48.8381 36.2911" stroke="#231F20" stroke-width="1.85168" stroke-linecap="round" stroke-linejoin="round"/>
<defs>
<clipPath id="clip0_58_49">
<rect width="30.8538" height="33.2074" fill="white" transform="matrix(-1 0 0 1 93 19.0386)"/>
</clipPath>
</defs>
</svg>
