<svg width="104" height="98" viewBox="0 0 104 98" fill="none" xmlns="http://www.w3.org/2000/svg">
<g id="Group 221">
<path id="Vector" d="M80.1997 31.8049C64.3551 21.9843 54.9289 13.5891 53.6158 8.56912C53.5497 8.327 53.4214 8.10732 53.244 7.93245C53.0666 7.75757 52.8464 7.63373 52.6059 7.57349C52.3653 7.51326 52.1129 7.51877 51.8744 7.5895C51.6358 7.66024 51.4196 7.79367 51.2478 7.9762C37.3966 22.8633 16.3292 24.4989 8.68344 45.1216C3.34243 59.5239 8.68623 74.1185 21.8431 81.6077C29.1544 85.7748 37.5973 87.6769 45.8872 88.5587C85.1742 92.7375 113.635 53.3347 80.1997 31.8049Z" fill="#363D39"/>
<path id="Vector_2" d="M15.4225 46.6228C20.6587 47.778 25.8522 44.4042 27.0226 39.0872C28.1929 33.7701 24.8968 28.5233 19.6605 27.3681C14.4243 26.2129 9.23078 29.5867 8.06046 34.9037C6.89015 40.2207 10.1862 45.4675 15.4225 46.6228Z" fill="white"/>
<path id="Vector_3" d="M27.6064 49.3117C32.8427 50.467 38.0362 47.0932 39.2065 41.7761C40.3768 36.4591 37.0807 31.2123 31.8445 30.0571C26.6083 28.9018 21.4147 32.2756 20.2444 37.5927C19.0741 42.9097 22.3702 48.1565 27.6064 49.3117Z" fill="white"/>
<path id="Vector_4" d="M15.1398 38.1947C15.7075 37.432 15.7667 36.3429 15.7142 35.5222C15.7036 35.1245 15.5987 34.7359 15.4083 34.3891C15.2917 34.1999 14.8434 33.6387 14.5187 33.7136C13.2145 33.3328 12.6271 35.7742 12.5239 36.4703C12.3847 37.4178 12.409 39.5148 14.0725 38.9572C14.4984 38.8238 14.8722 38.5568 15.1398 38.1947Z" fill="#231F20" stroke="#231F20" stroke-width="1.10773" stroke-linecap="round" stroke-linejoin="round"/>
<path id="Vector_5" d="M24.7902 37.2215C24.2775 38.0246 24.2927 39.1161 24.4023 39.9296C24.4404 40.3253 24.5719 40.7053 24.7859 41.0375C24.9154 41.2183 25.4036 41.7376 25.7206 41.6468C27.0444 41.9389 27.4655 39.4581 27.5199 38.7569C27.5911 37.8028 27.4209 35.713 25.8011 36.3874C25.3872 36.5522 25.0337 36.8439 24.7902 37.2215Z" fill="#231F20" stroke="#231F20" stroke-width="1.10773" stroke-linecap="round" stroke-linejoin="round"/>
</g>
</svg>
