<svg width="135" height="147" viewBox="0 0 135 147" fill="none" xmlns="http://www.w3.org/2000/svg">
<path d="M57.8694 20.0464C61.3221 20.0445 64.7355 20.7649 67.8811 22.1595C68.7001 17.0257 71.4675 12.3842 75.6297 9.16312C79.7919 5.94208 85.0421 4.37908 90.3301 4.78674C95.6181 5.19441 100.554 7.54268 104.151 11.3619C107.747 15.181 109.739 20.1895 109.728 25.3856C109.728 25.8856 109.728 26.3803 109.668 26.875C110.695 26.726 111.731 26.6505 112.769 26.6492C118.352 26.6492 123.706 28.8216 127.654 32.6887C131.601 36.5557 133.819 41.8005 133.819 47.2694C133.819 52.7382 131.601 57.983 127.654 61.8501C123.706 65.7171 118.352 67.8896 112.769 67.8896H57.8804C51.4023 67.8896 45.1895 65.3687 40.6088 60.8815C36.0282 56.3943 33.4548 50.3084 33.4548 43.9626C33.4548 37.6168 36.0282 31.5309 40.6088 27.0437C45.1895 22.5565 51.4023 20.0356 57.8804 20.0356L57.8694 20.0464Z" fill="#E9E9E9"/>
<path d="M99.7223 80.879L90.936 60.5536C90.8114 60.2654 90.5274 60.0788 90.2134 60.0788L74.8692 60.0788C74.2493 60.0788 73.8727 60.762 74.2036 61.2862L81.4252 72.7253C81.7561 73.2495 81.3795 73.9327 80.7596 73.9327L74.8435 73.9327C74.2291 73.9327 73.8516 74.6052 74.1715 75.1298L91.9284 104.241C92.3962 105.008 93.5772 104.519 93.3655 103.646L88.3472 82.9512C88.227 82.4558 88.6023 81.9785 89.1122 81.9785L98.9997 81.9785C99.5659 81.9785 99.9469 81.3987 99.7223 80.879Z" fill="#FFBD13"/>
<path d="M20.9915 128.646C21.0726 127.89 21.4215 127.188 21.9754 126.665C22.6091 126.075 23.3762 125.645 24.2116 125.413C46.4031 119.154 42.1214 93.9897 42.1214 93.9897L60.1567 102.567C60.1567 102.567 53.0992 127.036 30.7295 133.205C32.3533 137.797 30.5914 141.297 27.8934 141.768C20.4017 143.072 20.5699 132.506 20.9915 128.646Z" fill="#1E1E1E"/>
<path d="M31.5427 101.886L42.0412 100.544C42.0412 100.544 57.3986 114.039 57.8804 134.064C59.4993 133.871 61.098 133.974 62.4683 134.617C67.7665 137.101 62.644 144.432 50.4916 144.83C50.4916 144.83 44.955 145.33 46.2401 139.146C47.6957 117.151 31.5427 101.886 31.5427 101.886Z" fill="#FFDA23"/>
<path d="M89.8335 118.253C92.0889 118.272 96.8008 117.334 96.8221 113.087C96.8221 110.949 95.1119 109.403 92.9377 108.682L87.5545 86.0156L74.5136 88.3678L83.9929 110.429C82.5156 116.036 87.3066 118.234 89.8335 118.253Z" fill="#FFDA23"/>
<path d="M66.905 109.311C46.4906 116.222 25.5225 108.77 20.0731 92.6659C14.6237 76.5622 26.756 57.9052 47.1704 50.9919C67.5848 44.0787 88.5529 51.5329 94.0023 67.6367C99.4517 83.7405 87.3215 102.4 66.905 109.311ZM58.1761 88.6587C47.9892 91.7315 41.0262 97.5328 42.6232 101.619C44.2202 105.706 53.7743 106.527 63.9612 103.454C74.148 100.381 81.1132 94.5798 79.5162 90.4934C77.9192 86.407 68.3651 85.5859 58.1761 88.6502V88.6587Z" fill="#FFDA23"/>
<path d="M61.6716 93.4016C66.8687 91.8342 71.2235 89.5526 74.0348 87.1577C76.8632 87.6902 78.86 88.8171 79.5163 90.4935C81.1133 94.5799 74.1503 100.383 63.9612 103.454C53.7722 106.525 44.2203 105.706 42.6233 101.619C41.8408 99.6178 43.115 97.2057 45.813 94.9028C49.8792 95.6704 55.6664 95.2128 61.6716 93.4016Z" fill="#FFCB11"/>
<path d="M71.1658 66.9458C69.0913 66.9458 67.4096 65.2637 67.4096 63.1887C67.4096 61.1137 69.0913 59.4316 71.1658 59.4316C73.2403 59.4316 74.922 61.1137 74.922 63.1887C74.922 65.2637 73.2403 66.9458 71.1658 66.9458Z" fill="white"/>
<path d="M71.9663 62.4654C72.1117 62.908 71.9663 63.4212 71.8081 63.7912C71.7399 63.9734 71.6283 64.1363 71.4832 64.2659C71.3977 64.3343 71.0984 64.5225 70.9594 64.4369C70.2839 64.4048 70.4014 63.1839 70.4656 62.846C70.5511 62.3863 70.8931 61.4219 71.5901 61.9436C71.767 62.0739 71.8986 62.2564 71.9663 62.4654Z" fill="#1E1E1E" stroke="#1E1E1E" stroke-width="1.5586" stroke-linecap="round" stroke-linejoin="round"/>
<path d="M62.3662 67.3666C60.2917 67.3666 58.61 65.6846 58.61 63.6096C58.61 61.5346 60.2917 59.8525 62.3662 59.8525C64.4407 59.8525 66.1224 61.5346 66.1224 63.6096C66.1224 65.6846 64.4407 67.3666 62.3662 67.3666Z" fill="white"/>
<path d="M63.3083 62.8589C63.4516 63.3037 63.3084 63.8148 63.1501 64.1868C63.0816 64.3683 62.9701 64.5304 62.8252 64.6594C62.7397 64.73 62.4404 64.9181 62.2993 64.8305C61.6259 64.7984 61.7413 63.5774 61.8054 63.2396C61.8931 62.7798 62.233 61.8154 62.9299 62.3372C63.1067 62.468 63.2389 62.6502 63.3083 62.8589Z" fill="#1E1E1E" stroke="#1E1E1E" stroke-width="1.5586" stroke-linecap="round" stroke-linejoin="round"/>
<path d="M50.6689 70.9562C50.6689 70.9562 84.0743 76.92 81.7513 68.6966" stroke="#1E1E1E" stroke-width="1.57434" stroke-linecap="round" stroke-linejoin="round"/>
<path d="M28.8981 76.2266C28.8981 76.2266 2.16208 80.8047 2.85261 89.6018C3.54313 98.3989 11.0192 98.6556 22.7561 98.198C34.4929 97.7404 28.8981 76.2266 28.8981 76.2266Z" fill="#FFDA23"/>
<path d="M22.2045 98.2723C23.5773 98.4039 24.9625 98.2644 26.2814 97.8617C28.5647 97.1881 26.709 94.6542 25.3579 94.7333C25.3579 94.7333 30.3455 92.9649 27.8121 91.188C25.2788 89.411 24.2655 90.7603 24.2655 90.7603C24.2655 90.7603 28.3274 89.2079 26.9741 86.3105C25.6208 83.413 16.4003 86.1864 16.4003 86.1864L11.1475 91.6563L12.5414 98.1205C12.5414 98.1205 19.8443 98.33 22.2045 98.2723Z" fill="#FFDA23"/>
<path d="M21.4007 98.3324C21.4007 98.3324 24.0003 98.5462 26.2814 97.8705C28.5625 97.1948 26.709 94.663 25.3579 94.7421C25.3579 94.7421 30.3455 92.9738 27.8121 91.1968C25.2788 89.4198 24.2655 90.7691 24.2655 90.7691C24.2655 90.7691 28.3274 89.2167 26.9741 86.3192C25.6208 83.4218 16.4003 86.1952 16.4003 86.1952" stroke="#1E1E1E" stroke-width="1.18076" stroke-linecap="round" stroke-linejoin="round"/>
<path d="M84.692 98.5547C84.692 98.5547 79.2512 103.766 74.5201 106" stroke="#1E1E1E" stroke-width="1.18076" stroke-linecap="round" stroke-linejoin="round"/>
<path d="M59.8251 133.981C59.8251 133.981 57.8022 133.856 56.0604 134.732" stroke="#1E1E1E" stroke-width="1.18076" stroke-linecap="round" stroke-linejoin="round"/>
<path d="M50.7476 52.7787C50.5677 49.061 48.7478 41.5099 39.8775 41.1475C33.6245 40.8924 27.7312 45.3991 26.4074 51.4387C25.7054 54.6375 26.117 58.2265 27.9608 60.9966C29.5403 63.37 32.1902 64.785 34.8941 65.5375C39.3423 66.7725 44.6853 66.17 47.8941 62.5896C50.2774 59.9289 50.9144 56.2391 50.7476 52.7787Z" fill="#E351AF" stroke="#E351AF" stroke-width="0.892329" stroke-linecap="round" stroke-linejoin="round"/>
<path d="M29.6292 49.6449C29.4493 45.8811 27.6293 38.2429 18.759 37.8763C12.5061 37.616 6.61277 42.1781 5.28895 48.2891C4.58695 51.5279 4.9986 55.1571 6.84242 57.962C8.42191 60.3613 11.0739 61.793 13.7757 62.5545C18.2217 63.804 23.5647 63.2053 26.7757 59.5717C29.159 56.873 29.796 53.1397 29.6292 49.6449Z" fill="#E351AF" stroke="#E351AF" stroke-width="0.892329" stroke-linecap="round" stroke-linejoin="round"/>
<path d="M14.1691 59.6282C11.8076 58.7755 7.32067 55.5743 8.26528 49.5918" stroke="#262225" stroke-width="1.18076" stroke-linecap="round"/>
<path d="M47.8207 57.2666C46.9023 59.7593 43.4912 64.4692 37.1939 63.3672" stroke="#262225" stroke-width="1.18076" stroke-linecap="round"/>
<path d="M41.8218 38.9373C41.6441 35.1753 39.8463 27.5365 31.0839 27.1677C24.907 26.9095 19.0854 31.4698 17.7776 37.5813C17.0842 40.8204 17.4909 44.45 19.3123 47.253C20.8726 49.6547 23.4923 51.0865 26.1612 51.848C30.5531 53.0977 35.8311 52.4881 38.9923 48.865C41.368 46.1726 41.9973 42.4345 41.8218 38.9373Z" fill="#FF59C3" stroke="#FF59C3" stroke-width="0.892329" stroke-linecap="round" stroke-linejoin="round"/>
<path d="M37.7843 50.3792C34.242 53.7246 24.5992 55.1022 19.089 47.2305" stroke="#262225" stroke-width="1.18076" stroke-linecap="round"/>
<path d="M21.6473 84.2276L27.7478 53.1343" stroke="#262225" stroke-width="1.18076" stroke-linecap="round" stroke-linejoin="round"/>
</svg>
